<?xml version="1.0" encoding="utf-8"?>
<!-- Generator: Adobe Illustrator 15.0.0, SVG Export Plug-In  -->
<!DOCTYPE svg PUBLIC "-//W3C//DTD SVG 1.1//EN" "http://www.w3.org/Graphics/SVG/1.1/DTD/svg11.dtd" [
	<!ENTITY ns_flows "http://ns.adobe.com/Flows/1.0/">
]>
<svg version="1.1"
	 xmlns="http://www.w3.org/2000/svg" xmlns:xlink="http://www.w3.org/1999/xlink" xmlns:a="http://ns.adobe.com/AdobeSVGViewerExtensions/3.0/"
	 x="0px" y="0px" width="650px" height="149px" viewBox="0 0 650 149" overflow="visible" enable-background="new 0 0 650 149"
	 xml:space="preserve">
<defs>
</defs>
<path fill="#1F60AC" d="M150.4,148.68h3.95v-15.43h0.06l7.88,15.43h5.06v-20.62h-3.96v15.42h-0.06l-7.87-15.42h-5.06V148.68
	L150.4,148.68z M171.93,148.68h4.14v-9.04h8.27v9.04h4.14v-20.62h-4.14v8.33h-8.27v-8.33h-4.14V148.68L171.93,148.68z
	 M204.73,128.44c-1.5-0.5-3.16-0.73-4.93-0.73c-3.63,0-7.2,1.69-7.2,6.3c0,6.82,9.03,5.2,9.03,9.12c0,1.87-2.1,2.66-3.65,2.66
	c-1.63,0-3.26-0.5-4.67-1.27l-0.39,3.73c2.04,0.5,3.05,0.79,5.28,0.79c4.17,0,7.75-1.71,7.75-6.24c0-6.9-9.04-5.39-9.04-8.98
	c0-2.24,1.82-2.87,3.25-2.87c1.44,0,2.9,0.33,4.2,0.89L204.73,128.44L204.73,128.44z M217.9,148.68h4.14v-9.04h6.97v-3.25h-6.97
	v-5.08h7.32v-3.25H217.9V148.68L217.9,148.68z M231.35,141.19c0,4.36,2.93,7.84,7.94,7.84c5.05,0,7.98-3.48,7.98-7.84
	c0-5.03-3.46-8.08-7.98-8.08C234.81,133.11,231.35,136.16,231.35,141.19L231.35,141.19z M235.49,140.71c0-2.28,1.23-4.53,3.8-4.53
	c2.6,0,3.85,2.19,3.85,4.53c0,2.54-0.81,5.25-3.85,5.25C236.28,145.96,235.49,143.21,235.49,140.71L235.49,140.71z M264.35,133.46
	h-3.96v7.44c0,1.95-0.63,5.05-3.49,5.05c-2.54,0-2.57-2.51-2.57-4.36v-8.13h-3.95v9.61c0,3.43,1.56,5.96,5.17,5.96
	c2.06,0,3.77-0.94,4.98-2.41h0.06v2.07h3.75v-15.23H264.35z M268.43,148.68h3.95v-7.44c0-1.95,0.62-5.06,3.48-5.06
	c2.54,0,2.58,2.52,2.58,4.37v8.13h3.95v-9.6c0-3.42-1.56-5.97-5.17-5.97c-2.07,0-3.75,0.67-4.99,2.43h-0.06v-2.07h-3.75v15.21
	H268.43z M289.63,141.03c0-2.04,0.72-4.85,3.28-4.85c2.54,0,3.55,2.72,3.55,4.85c0,2.16-0.86,4.93-3.49,4.93
	C290.37,145.96,289.63,143.12,289.63,141.03L289.63,141.03z M296.61,148.68h3.84v-22.16h-3.96v8.73h-0.06
	c-1.18-1.47-2.57-2.14-4.56-2.14c-4.66,0-6.38,3.72-6.38,7.92c0,4.17,1.72,8,6.38,8c1.87,0,3.49-0.58,4.68-2.06h0.06V148.68
	L296.61,148.68z M305.32,137.65c1.33-0.99,3.02-1.65,4.71-1.65c2.32,0,3.41,0.83,3.41,3.28h-2.18c-1.66,0-3.6,0.15-5.12,0.89
	c-1.51,0.73-2.59,2.07-2.59,4.34c0,2.9,2.63,4.51,5.31,4.51c1.79,0,3.78-0.94,4.7-2.62h0.06c0.03,0.47,0.03,1.48,0.17,2.27h3.48
	c-0.08-1.18-0.15-2.25-0.17-3.4c-0.03-1.13-0.05-2.27-0.05-3.81v-1.96c0-4.48-1.92-6.41-6.56-6.41c-1.68,0-3.75,0.44-5.29,1.16
	L305.32,137.65L305.32,137.65z M307.33,144.28c0-2.33,2.62-2.63,4.39-2.63h1.72c0,1.18-0.18,2.27-0.83,3.13
	c-0.61,0.83-1.55,1.36-2.77,1.36C308.43,146.14,307.33,145.58,307.33,144.28L307.33,144.28z M322.25,144.09
	c0,3.02,1.72,4.93,4.82,4.93c1.18,0,2.1-0.11,2.92-0.35l-0.12-3.13c-0.41,0.27-1.09,0.41-1.8,0.41c-1.5,0-1.86-1.21-1.86-2.51v-7.09
	h3.52v-2.9h-3.52v-4.31l-3.95,1.27v3.04h-2.93v2.9h2.93L322.25,144.09L322.25,144.09L322.25,144.09z M332.53,148.68h3.97v-15.21
	h-3.97V148.68L332.53,148.68z M332.53,130.69h3.97v-3.79h-3.97V130.69L332.53,130.69z M339.68,141.19c0,4.36,2.93,7.84,7.94,7.84
	c5.05,0,7.98-3.48,7.98-7.84c0-5.03-3.46-8.08-7.98-8.08C343.14,133.11,339.68,136.16,339.68,141.19L339.68,141.19z M343.82,140.71
	c0-2.28,1.23-4.53,3.8-4.53c2.6,0,3.84,2.19,3.84,4.53c0,2.54-0.79,5.25-3.84,5.25C344.61,145.96,343.82,143.21,343.82,140.71
	L343.82,140.71z M358.71,148.68h3.96v-7.44c0-1.95,0.62-5.06,3.47-5.06c2.55,0,2.58,2.52,2.58,4.37v8.13h3.96v-9.6
	c0-3.42-1.56-5.97-5.17-5.97c-2.06,0-3.75,0.67-5,2.43h-0.05v-2.07h-3.75V148.68L358.71,148.68z M389.07,148.68h4.14V131.3h5.92
	v-3.25h-15.96v3.25h5.9V148.68L389.07,148.68z M398.78,148.68h3.95v-5.58c0-2.19,0-6.2,3.22-6.2c0.71,0,1.41,0.11,1.78,0.32v-3.99
	c-0.42-0.11-0.83-0.11-1.21-0.11c-2.37,0-3.99,2.4-4.17,3.81h-0.06v-3.45h-3.5L398.78,148.68L398.78,148.68L398.78,148.68z
	 M424.15,133.46h-3.96v7.44c0,1.95-0.62,5.05-3.48,5.05c-2.54,0-2.57-2.51-2.57-4.36v-8.13h-3.96v9.61c0,3.43,1.55,5.96,5.16,5.96
	c2.08,0,3.78-0.94,4.99-2.41h0.05v2.07h3.76L424.15,133.46L424.15,133.46z M437.53,133.67c-1.25-0.27-2.45-0.56-4.31-0.56
	c-3.11,0-5.97,1.44-5.97,4.73c0,5.49,6.89,3.46,6.89,6.44c0,1.47-1.61,1.86-2.6,1.86c-1.36,0-2.66-0.39-3.91-1l-0.24,3.24
	c1.45,0.39,2.99,0.64,4.49,0.64c3.23,0,6.38-1.41,6.38-4.96c0-5.49-6.89-3.96-6.89-6.37c0-1.31,1.28-1.69,2.34-1.69
	c1.45,0,2.33,0.23,3.54,0.65L437.53,133.67L437.53,133.67z M442.65,144.09c0,3.02,1.72,4.93,4.81,4.93c1.19,0,2.09-0.11,2.92-0.35
	l-0.12-3.13c-0.41,0.27-1.08,0.41-1.79,0.41c-1.52,0-1.87-1.21-1.87-2.51v-7.09h3.51v-2.9h-3.51v-4.31l-3.96,1.27v3.04h-2.93v2.9
	h2.93L442.65,144.09L442.65,144.09L442.65,144.09z"/>
<path fill="#231F20" d="M150.4,111.75h5.93V88.61h0.09l11.83,23.14h7.58V80.82h-5.93v23.13h-0.09l-11.79-23.13h-7.62V111.75
	L150.4,111.75z M179.82,100.5c0,6.55,4.39,11.78,11.92,11.78c7.58,0,11.97-5.23,11.97-11.78c0-7.54-5.19-12.11-11.97-12.11
	C185.02,88.4,179.82,92.96,179.82,100.5L179.82,100.5z M186.03,99.78c0-3.41,1.85-6.78,5.71-6.78c3.91,0,5.77,3.28,5.77,6.78
	c0,3.81-1.2,7.9-5.77,7.9C187.23,107.68,186.03,103.55,186.03,99.78L186.03,99.78z M207.61,111.75h5.93v-8.38
	c0-3.29,0-9.31,4.84-9.31c1.06,0,2.12,0.18,2.65,0.48v-5.98c-0.62-0.18-1.25-0.18-1.82-0.18c-3.55,0-5.98,3.58-6.25,5.72h-0.09
	v-5.19h-5.27L207.61,111.75L207.61,111.75z M229.33,104.88c0,4.52,2.56,7.4,7.22,7.4c1.77,0,3.14-0.17,4.39-0.53l-0.18-4.7
	c-0.62,0.4-1.64,0.62-2.7,0.62c-2.26,0-2.79-1.83-2.79-3.77V93.27h5.28v-4.35h-5.28v-6.46l-5.93,1.9v4.56h-4.39v4.35h4.39
	L229.33,104.88L229.33,104.88z M244.6,111.75h5.95v-11.16c0-2.93,0.93-7.58,5.23-7.58c3.8,0,3.85,3.77,3.85,6.55v12.19h5.94V97.34
	c0-5.13-2.35-8.95-7.76-8.95c-3.1,0-5.67,1.43-7.18,3.63h-0.08v-13.5h-5.95V111.75L244.6,111.75z M292.65,88.92h-5.94v11.17
	c0,2.93-0.93,7.59-5.22,7.59c-3.81,0-3.86-3.77-3.86-6.56v-12.2h-5.93v14.41c0,5.14,2.35,8.95,7.76,8.95c3.1,0,5.66-1.42,7.48-3.64
	h0.09v3.1h5.63L292.65,88.92L292.65,88.92z M298.66,111.75h5.95v-11.08c0-2.97,0.49-7.67,4.43-7.67c3.42,0,3.42,3.02,3.42,5.14v13.6
	h5.93v-11.08c0-2.97,0.49-7.67,4.43-7.67c3.42,0,3.42,3.02,3.42,5.14v13.6h5.94V97.34c0-5.09-1.59-8.95-7.23-8.95
	c-2.79,0-5.76,1.29-7.14,4.02c-1.28-2.82-3.54-4.02-6.73-4.02c-2.22,0-4.92,0.93-6.78,3.72h-0.09v-3.19h-5.55L298.66,111.75
	L298.66,111.75z M344.15,100.28c0-3.2,1.5-7.27,5.31-7.27c3.85,0,4.91,4.21,4.91,7.27c0,3.14-1.1,7.4-5,7.4
	C345.42,107.68,344.15,103.51,344.15,100.28L344.15,100.28z M338.16,111.75h5.76v-2.79h0.09c1.73,2.44,4.48,3.33,7,3.33
	c6.99,0,9.57-5.77,9.57-12.01c0-6.3-2.58-11.88-9.57-11.88c-3.1,0-5.19,1.29-6.82,3.46h-0.09V78.52h-5.93L338.16,111.75
	L338.16,111.75z M365.36,111.75h5.95v-8.38c0-3.29,0-9.31,4.83-9.31c1.07,0,2.13,0.18,2.66,0.48v-5.98
	c-0.62-0.18-1.24-0.18-1.82-0.18c-3.54,0-5.98,3.58-6.24,5.72h-0.09v-5.19h-5.27v22.84H365.36z M382.6,111.75h5.94V88.92h-5.94
	V111.75L382.6,111.75z M382.6,84.76h5.94v-5.67h-5.94V84.76L382.6,84.76z M395.99,95.22c1.99-1.5,4.52-2.48,7.04-2.48
	c3.5,0,5.14,1.24,5.14,4.93h-3.28c-2.48,0-5.41,0.22-7.67,1.32c-2.25,1.11-3.89,3.1-3.89,6.52c0,4.34,3.94,6.78,7.98,6.78
	c2.7,0,5.67-1.42,7.03-3.94h0.1c0.05,0.7,0.05,2.21,0.26,3.41h5.23c-0.13-1.77-0.22-3.37-0.26-5.1c-0.05-1.68-0.1-3.41-0.1-5.71
	v-2.93c0-6.74-2.88-9.62-9.83-9.62c-2.53,0-5.63,0.67-7.93,1.73L395.99,95.22L395.99,95.22z M399,105.14c0-3.5,3.94-3.94,6.61-3.94
	h2.56c0,1.77-0.27,3.41-1.24,4.69c-0.92,1.25-2.34,2.05-4.16,2.05C400.63,107.94,399,107.1,399,105.14L399,105.14z M432.28,111.75
	h6.2V98.18h12.41v13.57h6.21V80.82h-6.21v12.5h-12.41v-12.5h-6.2V111.75L432.28,111.75z M467.95,98.1c0.26-3.06,1.95-5.36,5.27-5.36
	c3.33,0,4.65,2.48,4.83,5.36H467.95L467.95,98.1z M482.05,105.63c-2.23,1.25-4.7,2.32-7.58,2.32c-3.68,0-6.26-2.09-6.52-5.76h15.77
	c0-7.97-2.38-13.78-10.85-13.78c-7.08,0-10.59,5.45-10.59,12.05c0,7.5,4.39,11.84,11.93,11.84c3.19,0,5.66-0.62,7.85-1.82v-4.85
	H482.05z M489.58,95.22c1.99-1.5,4.52-2.48,7.04-2.48c3.5,0,5.14,1.24,5.14,4.93h-3.29c-2.48,0-5.4,0.22-7.66,1.32
	c-2.26,1.11-3.9,3.1-3.9,6.52c0,4.34,3.94,6.78,7.97,6.78c2.7,0,5.67-1.42,7.04-3.94h0.09c0.04,0.7,0.04,2.21,0.27,3.41h5.22
	c-0.12-1.77-0.21-3.37-0.26-5.1c-0.05-1.68-0.1-3.41-0.1-5.71v-2.93c0-6.74-2.87-9.62-9.83-9.62c-2.53,0-5.63,0.67-7.93,1.73
	L489.58,95.22L489.58,95.22z M492.59,105.14c0-3.5,3.94-3.94,6.6-3.94h2.57c0,1.77-0.27,3.41-1.25,4.69
	c-0.93,1.25-2.34,2.05-4.18,2.05C494.24,107.94,492.59,107.1,492.59,105.14L492.59,105.14z M513.15,111.75h5.94V78.52h-5.94V111.75
	L513.15,111.75z M527.29,104.88c0,4.52,2.57,7.4,7.23,7.4c1.77,0,3.14-0.17,4.39-0.53l-0.18-4.7c-0.62,0.4-1.65,0.62-2.7,0.62
	c-2.26,0-2.8-1.83-2.8-3.77V93.27h5.27v-4.35h-5.27v-6.46l-5.94,1.9v4.56h-4.39v4.35h4.39V104.88L527.29,104.88z M542.57,111.75
	h5.94v-11.16c0-2.93,0.93-7.58,5.23-7.58c3.82,0,3.86,3.77,3.86,6.55v12.19h5.94V97.34c0-5.13-2.34-8.95-7.75-8.95
	c-3.1,0-5.67,1.43-7.17,3.63h-0.1v-13.5h-5.94L542.57,111.75L542.57,111.75z M584.98,89.15c-1.63-0.49-3.36-0.76-5.75-0.76
	c-7.14,0-11.04,5.23-11.04,11.83c0,6.97,3.76,12.06,11.25,12.06c2.44,0,4.22-0.22,5.95-0.76l-0.26-4.92
	c-1.02,0.44-2.88,1.07-4.57,1.07c-4.17,0-6.16-3.24-6.16-7.46c0-4.29,2.35-7.22,6.03-7.22c1.83,0,2.97,0.36,4.03,0.84L584.98,89.15
	L584.98,89.15z M590.53,95.22c1.98-1.5,4.51-2.48,7.04-2.48c3.51,0,5.14,1.24,5.14,4.93h-3.28c-2.48,0-5.41,0.22-7.67,1.32
	c-2.26,1.11-3.9,3.1-3.9,6.52c0,4.34,3.94,6.78,7.98,6.78c2.69,0,5.67-1.42,7.04-3.94h0.08c0.05,0.7,0.05,2.21,0.27,3.41h5.23
	c-0.13-1.77-0.22-3.37-0.26-5.1c-0.04-1.68-0.09-3.41-0.09-5.71v-2.93c0-6.74-2.87-9.62-9.84-9.62c-2.52,0-5.62,0.67-7.92,1.73
	L590.53,95.22L590.53,95.22z M593.54,105.14c0-3.5,3.95-3.94,6.61-3.94h2.57c0,1.77-0.27,3.41-1.24,4.69
	c-0.93,1.25-2.35,2.05-4.17,2.05C595.17,107.94,593.54,107.1,593.54,105.14L593.54,105.14z M614.1,111.75h5.94v-8.38
	c0-3.29,0-9.31,4.83-9.31c1.07,0,2.13,0.18,2.66,0.48v-5.98c-0.62-0.18-1.25-0.18-1.82-0.18c-3.55,0-5.99,3.58-6.25,5.72h-0.09
	v-5.19h-5.26L614.1,111.75L614.1,111.75z M634.63,98.1c0.26-3.06,1.94-5.36,5.27-5.36c3.32,0,4.65,2.48,4.83,5.36H634.63
	L634.63,98.1z M648.72,105.63c-2.22,1.25-4.71,2.32-7.58,2.32c-3.68,0-6.25-2.09-6.51-5.76h15.77c0-7.97-2.39-13.78-10.86-13.78
	c-7.09,0-10.58,5.45-10.58,12.05c0,7.5,4.38,11.84,11.91,11.84c3.19,0,5.67-0.62,7.85-1.82V105.63L648.72,105.63z"/>
<path fill="#1F60AC" d="M306.37,62.81V0H150.4v62.81H306.37L306.37,62.81z M213.11,6.06l-10.77,50.56h-16.9l-10.61-34.98h-0.14
	l-7.08,34.97H154.8l10.85-50.55h16.95l10.42,35.06h0.14l7.14-35.06H213.11L213.11,6.06z M261.44,6.06l-10.56,50.56h-13.61
	l4.52-21.65h-16.1l-4.51,21.65h-13.6l10.55-50.56h13.61l-4,19.34h16.08l4-19.34H261.44L261.44,6.06z M300.53,7.44l-3.28,10.06
	c-2.63-1.23-6.19-2.31-11.21-2.31c-5.39,0-9.75,0.8-9.75,4.86c0,7.16,19.72,4.49,19.72,19.84c0,13.98-13.03,17.6-24.83,17.6
	c-5.23,0-11.28-1.23-15.72-2.6l3.21-10.29c2.68,1.74,8.08,2.9,12.51,2.9c4.24,0,10.84-0.8,10.84-6.01c0-8.12-19.72-5.08-19.72-19.33
	c0-13.04,11.51-16.95,22.64-16.95C291.21,5.2,297.11,5.86,300.53,7.44L300.53,7.44z"/>
<path fill="#1F60AC" d="M62.37,0c-6.34,0-11.13,1.37-14.74,3.69V0.55H0v11.7h29.6L4.93,62.4h18.98L37.2,35.24
	c0.64,14.37,5.39,27.6,25.17,27.6c21.53,0,25.26-15.67,25.26-31.42C87.63,15.67,83.9,0,62.37,0z M62.37,51.87
	c-7.83,0-8.48-10.79-8.48-20.45s0.65-20.45,8.48-20.45c7.83,0,8.48,10.79,8.48,20.45S70.2,51.87,62.37,51.87z"/>
<path fill="#1D1D1B" d="M9.98,73.66l-4.36-7.35h3.62l2.31,4.73l2.28-4.73h3.62l-4.33,7.35v4.44H9.98V73.66z"/>
<path fill="#1D1D1B" d="M23.04,66.31h8.31v2.23h-5.17v2.43h4.88v2.23h-4.88v2.67h5.36v2.23h-8.5V66.31z"/>
<path fill="#1D1D1B" d="M41.36,66.31h3.85l4.54,11.79h-3.45l-0.88-2.52h-4.43l-0.93,2.52h-3.19L41.36,66.31z M43.29,68.74h-0.03
	l-1.52,4.61h2.96L43.29,68.74z"/>
<path fill="#1D1D1B" d="M55.3,66.31h5.61c2.1,0,3.8,0.95,3.8,2.97c0,1.57-0.74,2.62-2.26,2.97v0.03c1.01,0.27,1.08,1.17,1.67,2.6
	l1.15,3.21h-3.28l-0.68-2.13c-0.64-2.03-1.05-2.53-2.21-2.53h-0.66v4.66H55.3V66.31z M58.45,71.21h0.83c1.01,0,2.3-0.03,2.3-1.37
	c0-1.1-1.1-1.3-2.3-1.3h-0.83V71.21z"/>
<path fill="#1D1D1B" d="M71.09,75.2c0.81,0.44,1.94,0.78,3.24,0.78c1,0,1.94-0.2,1.94-1.15c0-2.2-5.58-0.81-5.58-5.1
	c0-2.84,2.77-3.62,5.14-3.62c1.13,0,2.25,0.17,3.04,0.44l-0.2,2.43c-0.81-0.37-1.72-0.54-2.62-0.54c-0.79,0-2.11,0.07-2.11,1.1
	c0,1.91,5.58,0.63,5.58,4.88c0,3.06-2.57,3.89-5.19,3.89c-1.1,0-2.47-0.17-3.51-0.51L71.09,75.2z"/>
<path fill="#1F60AC" d="M8.75,95.17l-1.69,1.2L6,94.76l3.03-1.97h2.1v8.92H8.75V95.17z"/>
<path fill="#1F60AC" d="M14.18,99.71c0.38,0.25,1.01,0.47,1.88,0.47c1.59,0,2.07-1.05,2.08-2.62h-0.03
	c-0.42,0.6-1.04,0.91-1.93,0.91c-1.64,0-2.67-1.21-2.67-2.81c0-1.65,1.38-3.02,3.35-3.02c2.54,0,3.43,1.99,3.43,4.23
	c0,2.74-0.98,5-3.94,5c-0.91,0-1.64-0.14-2.31-0.41L14.18,99.71z M16.88,94.17c-0.74,0-1.14,0.58-1.14,1.27
	c0,0.74,0.31,1.42,1.14,1.42c0.78,0,1.16-0.63,1.16-1.32C18.04,94.81,17.65,94.17,16.88,94.17z"/>
<path fill="#1F60AC" d="M24.91,100.01h-3.99v-1.89l3.58-5.33h2.63v5.61h1.27v1.61h-1.27v1.7h-2.23V100.01z M25.06,94.63h-0.03
	l-2.43,3.77h2.46V94.63z"/>
<path fill="#1F60AC" d="M30.83,97.11c-0.83-0.28-1.53-1.02-1.53-1.91c0-1.9,1.59-2.57,3.35-2.57s3.07,0.72,3.07,2.29
	c0,1.1-0.69,1.75-1.47,2.05V97c0.97,0.31,1.8,0.86,1.8,2.2c0,1.92-1.64,2.67-3.5,2.67c-1.92,0-3.48-0.72-3.48-2.54
	c0-1.3,0.81-1.92,1.76-2.2V97.11z M32.52,100.26c0.68,0,1.23-0.42,1.23-1.15c0-0.79-0.74-1.11-1.34-1.29
	c-0.58,0.27-1.04,0.64-1.04,1.33C31.37,99.78,31.89,100.26,32.52,100.26z M32.56,96.4c0.63-0.36,1.01-0.68,1.01-1.28
	c0-0.64-0.55-0.95-1.07-0.95c-0.58,0-1.05,0.43-1.05,1.05C31.44,95.9,32.01,96.15,32.56,96.4z"/>
<path fill="#1F60AC" d="M40.78,97.43h3.46v1.69h-3.46V97.43z"/>
<path fill="#1F60AC" d="M49.09,100.01c1.82-1.57,3.91-3.29,3.91-4.49c0-0.79-0.55-1.13-1.27-1.13c-0.77,0-1.79,0.29-2.34,0.61
	l-0.09-1.85c1.28-0.46,2.12-0.52,2.65-0.52c1.99,0,3.43,0.84,3.43,2.62c0,1.74-1.88,3.49-2.72,4.22l-0.64,0.55h3.53v1.69h-6.46
	V100.01z"/>
<path fill="#1F60AC" d="M56.83,97.25c0-2.31,0.51-4.62,3.46-4.62c2.95,0,3.46,2.3,3.46,4.62c0,2.31-0.51,4.62-3.46,4.62
	C57.34,101.87,56.83,99.57,56.83,97.25z M61.45,97.25c0-1.42-0.09-3-1.16-3s-1.16,1.58-1.16,3s0.09,3,1.16,3
	S61.45,98.67,61.45,97.25z"/>
<path fill="#1F60AC" d="M67.78,95.17l-1.69,1.2l-1.06-1.61l3.03-1.97h2.1v8.92h-2.38V95.17z"/>
<path fill="#1F60AC" d="M74.21,97.11c-0.83-0.28-1.53-1.02-1.53-1.91c0-1.9,1.59-2.57,3.35-2.57c1.76,0,3.07,0.72,3.07,2.29
	c0,1.1-0.69,1.75-1.47,2.05V97c0.97,0.31,1.8,0.86,1.8,2.2c0,1.92-1.64,2.67-3.5,2.67c-1.92,0-3.48-0.72-3.48-2.54
	c0-1.3,0.81-1.92,1.76-2.2V97.11z M75.9,100.26c0.68,0,1.23-0.42,1.23-1.15c0-0.79-0.74-1.11-1.34-1.29
	c-0.58,0.27-1.04,0.64-1.04,1.33C74.75,99.78,75.28,100.26,75.9,100.26z M75.94,96.4c0.63-0.36,1.01-0.68,1.01-1.28
	c0-0.64-0.55-0.95-1.07-0.95c-0.58,0-1.05,0.43-1.05,1.05C74.83,95.9,75.39,96.15,75.94,96.4z"/>
<path d="M10.86,80.41c2.85,0,4.52,2.07,4.52,4.86c0,2.85-1.65,4.86-4.52,4.86c-2.87,0-4.52-2.01-4.52-4.86
	C6.34,82.48,8.01,80.41,10.86,80.41z M10.86,88.94c2.17,0,3.1-1.8,3.1-3.67c0-1.91-1.02-3.69-3.1-3.67c-2.07-0.01-3.1,1.76-3.1,3.67
	C7.77,87.14,8.69,88.94,10.86,88.94z"/>
<path d="M17.21,80.57h4.99v1.19h-3.65v2.74h3.49v1.18h-3.49v4.28h-1.35V80.57z"/>
<path d="M29.63,81.76h-2.92v-1.19h7.19v1.19h-2.92v8.21h-1.35V81.76z"/>
<path d="M35.31,80.57h1.35v3.93h4.5v-3.93h1.35v9.39h-1.35v-4.28h-4.5v4.28h-1.35V80.57z"/>
<path d="M45.02,80.57h5.26v1.19h-3.92v2.74h3.57v1.18h-3.57v3.09h3.92v1.19h-5.26V80.57z"/>
<path d="M56.16,80.57h1.83l4.15,7.56h0.03v-7.56h1.35v9.39h-1.72l-4.25-7.73h-0.03v7.73h-1.35V80.57z"/>
<path d="M65.96,80.57h1.35v3.93h4.5v-3.93h1.35v9.39H71.8v-4.28h-4.5v4.28h-1.35V80.57z"/>
<path d="M79.87,81.98c-0.69-0.27-1.06-0.39-1.76-0.39c-0.75,0-1.64,0.27-1.64,1.25c0,1.8,4.04,1.39,4.04,4.48
	c0,2.01-1.55,2.8-3.43,2.8c-0.66,0-1.31-0.19-1.92-0.39l0.13-1.25c0.46,0.19,1.26,0.46,1.95,0.46c0.77,0,1.84-0.43,1.84-1.53
	c0-2.1-4.04-1.52-4.04-4.44c0-1.67,1.32-2.56,3.01-2.56c0.62,0,1.36,0.11,2,0.34L79.87,81.98z"/>
</svg>
